<svg width="382" height="343" viewBox="0 0 382 343" fill="none" xmlns="http://www.w3.org/2000/svg">
<path d="M371.418 216.978L371.413 216.992C370.698 219.376 369.948 221.722 369.165 224.033L369.639 224.193C368.035 228.927 366.293 233.508 364.42 237.94L363.96 237.745C362.013 242.353 359.925 246.797 357.706 251.08L358.15 251.31C355.854 255.742 353.417 260.003 350.849 264.094L350.426 263.828C347.78 268.043 344.996 272.078 342.084 275.935L342.483 276.236C339.486 280.205 336.354 283.987 333.099 287.584L332.729 287.248C329.404 290.922 325.951 294.401 322.383 297.691L322.722 298.059C319.08 301.415 315.319 304.574 311.451 307.538L311.147 307.142C307.233 310.141 303.209 312.941 299.091 315.545L299.358 315.967C295.185 318.605 290.915 321.041 286.563 323.279L286.335 322.834C281.965 325.081 277.512 327.128 272.991 328.979L273.18 329.442C268.622 331.307 263.995 332.973 259.315 334.443L259.165 333.966C254.484 335.436 249.748 336.71 244.974 337.791L245.085 338.279C240.288 339.365 235.452 340.257 230.593 340.958L230.522 340.463C225.666 341.164 220.788 341.674 215.901 341.996L215.934 342.495C211.025 342.819 206.109 342.955 201.2 342.905L201.205 342.405C196.298 342.356 191.398 342.121 186.522 341.705L186.479 342.203C181.574 341.784 176.692 341.181 171.85 340.399L171.93 339.905C167.079 339.121 162.268 338.156 157.514 337.014L157.397 337.5C152.606 336.349 147.871 335.019 143.21 333.512L143.364 333.036C141.029 332.282 138.713 331.483 136.417 330.64C134.178 329.818 131.947 328.968 129.725 328.09L129.541 328.555C125.095 326.798 120.687 324.931 116.33 322.956L116.537 322.501C112.183 320.528 107.88 318.447 103.644 316.264L103.414 316.708C99.1511 314.511 94.9537 312.209 90.8357 309.807L91.0876 309.375C86.945 306.959 82.8832 304.441 78.9163 301.825L78.641 302.242C74.6253 299.594 70.7063 296.845 66.8985 294.001L67.1977 293.6C63.3483 290.724 59.6131 287.75 56.007 284.682L55.683 285.063C52.0082 281.937 48.4669 278.713 45.0748 275.395L45.4244 275.038C41.9821 271.671 38.6942 268.209 35.5774 264.655L35.2015 264.985C32.0183 261.356 29.0126 257.631 26.2019 253.817L26.6044 253.52C23.7516 249.648 21.1008 245.683 18.6702 241.631L18.2415 241.889C15.7636 237.758 13.5134 233.535 11.5104 229.227L11.9638 229.016C9.94626 224.677 8.18075 220.251 6.68704 215.744L6.21242 215.901C4.70786 211.361 3.47768 206.738 2.54211 202.039L3.03248 201.941C2.1084 197.299 1.47308 192.582 1.14614 187.795L0.647298 187.829C0.325517 183.117 0.301095 178.339 0.592632 173.498L1.09173 173.528C1.3726 168.864 1.94808 164.141 2.83511 159.364L2.34352 159.273C3.19699 154.677 4.33757 150.032 5.78009 145.342L6.258 145.489C6.951 143.236 7.71402 140.972 8.54875 138.698C9.44035 136.269 10.4157 133.85 11.4712 131.443L11.0133 131.242C13.0826 126.522 15.4586 121.849 18.1151 117.237L18.5484 117.486C21.1153 113.029 23.9456 108.629 27.0157 104.298L26.6078 104.009C29.5979 99.7909 32.8142 95.6397 36.235 91.5678L36.6178 91.8894C39.9365 87.939 43.4484 84.0628 47.1337 80.2723L46.7752 79.9237C50.3943 76.2013 54.1797 72.5618 58.1126 69.0158L58.4474 69.3872C62.2991 65.9144 66.2928 62.5312 70.4107 59.2478L70.099 58.8569C74.175 55.607 78.3723 52.4548 82.6736 49.4102L82.9624 49.8183C87.2168 46.8069 91.5732 43.9008 96.015 41.1095L95.7489 40.6861C100.181 37.9009 104.698 35.2298 109.283 32.6822L109.526 33.1193C114.104 30.5757 118.749 28.1556 123.447 25.8682L123.228 25.4186C127.953 23.1176 132.73 20.9507 137.543 18.9272L137.737 19.3882C142.587 17.3491 147.472 15.4561 152.377 13.7189L152.21 13.2476C157.185 11.4855 162.179 9.88327 167.174 8.45118L167.312 8.93182C172.391 7.4758 177.471 6.19612 182.533 5.10342L182.427 4.61467C187.611 3.49582 192.775 2.57241 197.902 1.85593L197.971 2.35111C203.218 1.61789 208.423 1.102 213.565 0.815602L213.537 0.316401C218.854 0.0202874 224.105 -0.0311906 229.266 0.175476L229.246 0.675069C234.546 0.887359 239.75 1.37279 244.832 2.14587L244.907 1.65154C250.16 2.45074 255.284 3.55641 260.251 4.98467L260.113 5.46517C262.633 6.19003 265.112 6.99822 267.547 7.89185C269.817 8.725 272.061 9.59909 274.281 10.5129L274.471 10.0506C278.967 11.902 283.357 13.9164 287.635 16.0844L287.409 16.5304C291.73 18.7199 295.935 21.0665 300.018 23.5605L300.278 23.1339C304.42 25.6636 308.435 28.3446 312.318 31.167L312.024 31.5714C315.937 34.4167 319.715 37.4059 323.349 40.5288L323.675 40.1496C327.352 43.31 330.883 46.607 334.258 50.03L333.902 50.3811C337.295 53.8214 340.53 57.3892 343.599 61.0736L343.984 60.7535C347.083 64.4738 350.014 68.3127 352.768 72.2591L352.358 72.5453C355.119 76.5013 357.702 80.5657 360.097 84.7271L360.53 84.4777C362.942 88.668 365.165 92.9566 367.191 97.332L366.737 97.542C368.759 101.911 370.584 106.367 372.201 110.898L372.672 110.73C374.294 115.273 375.708 119.89 376.907 124.572L376.423 124.696C377.613 129.346 378.59 134.06 379.344 138.826L379.838 138.747C380.59 143.496 381.121 148.296 381.424 153.137L380.925 153.168C381.224 157.942 381.299 162.756 381.143 167.599L381.643 167.615C381.489 172.398 381.109 177.21 380.497 182.039L380.001 181.976C379.402 186.699 378.58 191.439 377.526 196.187L378.014 196.295C376.981 200.952 375.726 205.615 374.242 210.277L373.766 210.125C373.04 212.406 372.259 214.685 371.423 216.964L371.418 216.978Z" stroke="#3E3C3B" stroke-dasharray="15 15"/>
</svg>
