<svg width="38" height="36" viewBox="0 0 38 36" fill="none" xmlns="http://www.w3.org/2000/svg">
<path fill-rule="evenodd" clip-rule="evenodd" d="M18.6592 17.2887C18.5483 17.2887 18.438 17.2866 18.3282 17.2823C17.5363 17.2519 16.7895 17.7994 16.5617 18.5583C16.3535 19.252 16.6192 20.0122 17.205 20.4382C17.318 20.5204 17.4289 20.6053 17.5376 20.6929C18.2501 21.2669 19.3365 21.2616 20.0416 20.6786C20.6127 20.2064 20.8566 19.4229 20.6435 18.7132C20.3973 17.893 19.5976 17.2802 18.7413 17.2883C18.714 17.2886 18.6866 17.2887 18.6592 17.2887ZM12.3408 35.7417C16.1991 35.6943 21.5693 35.6599 25.4279 35.6599C30.0995 35.6599 33.8867 31.8728 33.8867 27.2011C33.8867 25.0659 34.5883 22.755 35.7773 20.9815C36.6791 19.6364 37.2051 18.0182 37.2051 16.2772C37.2051 11.6055 33.4179 7.81838 28.7463 7.81838C27.8459 7.81838 27.0098 7.19819 26.7449 6.33771C25.6811 2.88243 22.4634 0.371094 18.6592 0.371094C14.9458 0.371094 11.7913 2.76392 10.6534 6.09181C10.3396 7.00939 9.42856 7.66386 8.45883 7.66386C3.78716 7.66386 3.05176e-05 11.451 3.05176e-05 16.1227C3.05176e-05 18.054 0.64732 19.8342 1.73679 21.2581C3.00854 22.9202 3.77605 25.1907 3.77605 27.2836C3.77605 31.9552 7.56318 35.7424 12.2348 35.7424C12.2702 35.7424 12.3055 35.7421 12.3408 35.7417Z" fill="#3E3C3B"/>
</svg>
