<svg width="1205" height="838" viewBox="0 0 1205 838" fill="none" xmlns="http://www.w3.org/2000/svg">
<g clip-path="url(#clip0_166_1846)">
<rect width="1205" height="838" fill="#F1F1F1"/>
<g filter="url(#filter0_f_166_1846)">
<path d="M1087 1351V1218C1087 826.982 770.018 510 379 510C-12.0176 510 -329 826.982 -329 1218V1351C-329 1742.02 -12.0176 2059 379 2059C770.018 2059 1087 1742.02 1087 1351Z" fill="#FFCFD7"/>
</g>
<path d="M525.5 233C525.5 274.467 499.063 312.08 456.17 339.351C413.282 366.618 354.004 383.5 288.5 383.5C222.997 383.5 163.718 366.618 120.83 339.351C77.9371 312.08 51.5 274.467 51.5 233C51.5 212.351 64.2813 190.424 85.6421 169.109C106.989 147.808 136.835 127.192 170.797 109.169C238.728 73.1183 323.022 47.5 388.5 47.5C421.227 47.5 446.126 53.9001 465.072 64.7688C484.014 75.6353 497.038 90.9875 505.99 108.95C523.91 144.905 525.5 191.289 525.5 233Z" stroke="#3E3C3B"/>
<path d="M936.5 339.5C936.5 421.694 903.803 506.506 854.746 570.765C805.66 635.06 740.426 678.5 675.5 678.5C545.465 678.5 439.5 545.645 439.5 381C439.5 216.355 545.465 83.5 675.5 83.5C806.011 83.5 936.5 175.357 936.5 339.5Z" stroke="#12AE72" stroke-width="3"/>
<path d="M714.5 537.5C714.5 578.11 682.475 616.605 639.85 644.986C597.245 673.352 544.215 691.5 502.5 691.5C419.094 691.5 351.5 625.451 351.5 544C351.5 462.549 419.094 396.5 502.5 396.5C544.236 396.5 597.275 411.411 639.873 436.529C682.494 461.66 714.5 496.905 714.5 537.5Z" stroke="#3E3C3B"/>
<path d="M674.399 43.86V46.32L673.139 48.87L673.079 48.96L671.549 50.28L669.209 50.94L669.089 50.97H666.869V50.22H669.059L671.189 49.62L672.629 48.39L673.679 46.14V43.86H674.399ZM664.259 43.83L664.949 44.16L664.139 45.75H671.669V46.5H663.749L652.349 69L651.989 68.82L651.659 68.67L662.909 46.5H657.599L654.449 48.3L652.529 50.79L651.899 50.31L653.879 47.76L653.939 47.7L657.299 45.75H663.299L664.259 43.83ZM675.142 45.78L673.252 47.43L672.472 49.41V51.63V51.66L673.162 53.28L674.242 52.74L674.512 52.68H677.062V53.34H674.512H674.482L673.462 53.85L674.542 55.05L675.802 55.62H678.592L679.792 54.93L681.172 53.4L681.712 53.88L680.392 55.38L678.922 56.28L678.622 56.37L675.712 56.34L675.442 56.28L673.942 55.5L672.802 54.21H672.772L671.212 55.92L669.982 58.8V61.65L671.092 64.74L672.952 67.02L675.232 68.22L679.312 68.25L681.682 66.81L683.302 64.26V61.44H684.082V64.5L683.962 64.68L682.282 67.29L682.162 67.41L679.612 68.94L679.342 69H675.082L674.812 68.88L672.382 67.68L672.172 67.53L670.522 65.19L670.432 65.04L669.232 61.86V61.65V58.74L669.292 58.53L670.552 55.59L670.612 55.47L672.412 53.64L672.502 53.58L671.692 51.78L671.662 51.66V49.32L671.722 49.11L672.502 47.16L672.622 46.98L674.842 45.09L675.112 45H678.082L678.382 45.09L680.332 46.44L680.452 46.53L681.262 48.06L680.722 48.42L679.972 47.1L678.022 45.78H675.142ZM713.769 49.92L715.299 48.57L715.869 46.74V45H716.619V46.89L715.959 48.93L714.159 50.58L711.549 51.48H708.879L707.139 50.97L707.349 50.28L708.969 50.73H711.339L713.769 49.92ZM711.939 49.17L711.819 49.02L710.199 47.01L710.169 46.98L707.679 45.75H705.459H704.049L701.649 47.52H701.619L699.369 50.46L697.779 54.9V58.95L699.309 63.54L701.619 66.48L704.529 68.19H707.439V69H704.409L704.169 68.94L701.139 67.11L698.679 64.02L697.389 60.18L696.249 63.99L693.669 67.11L690.579 68.97L690.459 69H685.419L685.329 68.97L682.299 67.02L680.229 63.45L680.829 63L682.839 66.42L682.869 66.45L685.599 68.22H690.309L693.189 66.45L695.589 63.6L696.909 58.92V58.74V54.9L695.349 50.31L693.549 47.43L690.639 45.66H688.089V44.91H690.849L694.029 46.8L694.059 46.83L696.039 49.95L697.359 53.67L698.679 50.07L700.659 47.43L701.199 46.86L703.839 45H705.549H706.299H707.979L710.679 46.35L710.769 46.41L710.799 46.5H710.829L712.599 48.66L711.939 49.17ZM738.714 43.86V46.32L737.454 48.87L737.394 48.96L735.864 50.28L733.524 50.94L733.404 50.97H731.184V50.22H733.374L735.504 49.62L736.944 48.39L737.994 46.14V43.86H738.714ZM728.574 43.83L729.264 44.16L728.454 45.75H735.984V46.5H728.064L716.664 69L716.304 68.82L715.974 68.67L727.224 46.5H721.914L718.764 48.3L716.844 50.79L716.214 50.31L718.194 47.76L718.254 47.7L721.614 45.75H727.614L728.574 43.83ZM742.127 50.7L742.817 48.9L743.567 47.13L746.477 45H750.647L753.437 47.07L754.367 49.17L753.737 49.47L752.927 47.67L750.437 45.78H746.657L744.107 47.73L742.937 50.94L743.267 54.15L745.907 57.33L746.987 61.14L746.207 64.35L746.147 64.47L744.467 67.17L741.287 69H736.667L736.547 68.94L733.727 66.72L732.017 63.42V61.44H732.767V63.24L734.267 66.21L736.817 68.22H741.137L743.927 66.57L745.517 64.02L746.207 61.08L745.157 57.51H745.127V57.45V57.51L742.457 54.27L742.127 50.7ZM750.107 52.11L751.547 52.53H753.437L754.997 51.81L756.077 50.67L756.857 48.63V46.83L756.377 45.27L755.597 44.4L756.137 43.86L756.977 44.76C757.077 45 757.197 45.35 757.337 45.81C757.477 46.25 757.567 46.52 757.607 46.62C757.607 46.62 757.607 47.36 757.607 48.84L756.767 51.06L755.447 52.41L753.707 53.28H751.547L749.867 52.77L750.107 52.11Z" fill="#3E3C3B"/>
<path d="M989.485 401H989.005H988.735L986.485 378.35L974.995 401H974.125L986.365 377.03H987.175L989.395 400.22L998.635 382.13L997.255 381.23L996.145 379.76L995.815 378.71L996.595 378.44L996.895 379.49L997.825 380.69L998.965 381.47L1001.25 377L1001.91 377.27L999.655 381.74L1001.07 381.98L1003.23 381.59L1004.76 380.66L1005.69 379.31L1005.99 378.08L1006.02 377H1006.83L1006.8 378.17L1006.44 379.67L1005.21 381.29L1003.44 382.34L1001.04 382.79L999.295 382.43L989.875 401H989.485ZM1010.98 377.78L1009.09 379.43L1008.31 381.41V383.63V383.66L1009 385.28L1010.08 384.74L1010.35 384.68H1012.9V385.34H1010.35H1010.32L1009.3 385.85L1010.38 387.05L1011.64 387.62H1014.43L1015.63 386.93L1017.01 385.4L1017.55 385.88L1016.23 387.38L1014.76 388.28L1014.46 388.37L1011.55 388.34L1011.28 388.28L1009.78 387.5L1008.64 386.21H1008.61L1007.05 387.92L1005.82 390.8V393.65L1006.93 396.74L1008.79 399.02L1011.07 400.22L1015.15 400.25L1017.52 398.81L1019.14 396.26V393.44H1019.92V396.5L1019.8 396.68L1018.12 399.29L1018 399.41L1015.45 400.94L1015.18 401H1010.92L1010.65 400.88L1008.22 399.68L1008.01 399.53L1006.36 397.19L1006.27 397.04L1005.07 393.86V393.65V390.74L1005.13 390.53L1006.39 387.59L1006.45 387.47L1008.25 385.64L1008.34 385.58L1007.53 383.78L1007.5 383.66V381.32L1007.56 381.11L1008.34 379.16L1008.46 378.98L1010.68 377.09L1010.95 377H1013.92L1014.22 377.09L1016.17 378.44L1016.29 378.53L1017.1 380.06L1016.56 380.42L1015.81 379.1L1013.86 377.78H1010.98ZM1041.6 380.72L1042.95 381.23H1044.78L1046.55 380.51L1047.84 379.37L1048.65 377.9V377H1049.4V378.02L1048.56 379.64L1046.97 381.14L1044.9 382.01H1042.95L1041.18 381.38L1040.07 380.42L1035.27 386.45V399.38L1035.33 399.29L1053.3 377L1053.81 377.51L1050.3 381.92L1050.87 382.91L1052.46 383.96L1054.56 384.47H1054.62L1057.02 384.26L1058.82 383.27L1060.47 381.23L1061.1 378.92V377.09V377.06L1060.59 376.01L1061.25 375.74L1061.91 377.03V379.1L1061.13 381.65L1059.36 383.84L1057.26 385.01L1054.59 385.28L1052.16 384.68L1050.24 383.42L1049.76 382.58L1035.15 400.97H1034.55L1034.49 387.41L1023.66 401H1022.97V377H1023.81V399.44L1034.49 386.12L1034.43 377H1035.27V385.13L1039.44 379.91L1038.6 378.11V377H1039.35V377.84L1040.04 379.16L1041.78 377L1042.41 377.48L1040.58 379.79L1041.6 380.72ZM1056.24 379.64V381.71L1055.76 382.64L1056.45 382.97L1056.99 382.01V379.61L1056.33 377.3L1054.71 375.17L1052.64 373.97L1049.82 373.61L1047.24 374.24L1045.35 375.44L1044.72 376.55L1045.35 376.91L1045.95 375.95L1047.48 374.96L1049.85 374.36L1052.34 374.66L1054.2 375.74L1055.64 377.69L1056.24 379.64Z" fill="#3E3C3B"/>
<path d="M187.343 405.48H189.713L191.723 406.26L192.593 406.98L199.043 399H199.373H199.613V413.31L200.033 412.92L200.603 412.08H200.633L201.413 410.67V408.72H202.133V410.67L202.073 410.88L201.023 412.86L200.213 413.7L199.613 414.27V423H198.893L198.953 414.9L196.163 416.1L195.983 416.13H193.523L193.343 416.1L190.883 414.96L190.733 414.87L188.753 413.01L188.693 412.92L180.533 423.03L179.993 422.58L188.333 412.23L188.123 411.81L187.643 410.73V408.69H188.363V410.67L188.873 411.6L192.143 407.55L191.303 406.86L189.473 406.23H187.643L185.933 407.01L184.553 408.36L184.043 409.98V411.51H183.293V409.65L183.923 408.03L185.453 406.5L187.343 405.48ZM198.953 413.91L199.043 399.9L198.923 400.2L198.743 400.47L193.103 407.43L193.673 407.91L194.603 409.59L194.663 409.83V411.51H193.913V409.83L193.103 408.36L192.653 408L189.233 412.23L189.383 412.5L191.213 414.33H191.243L193.673 415.38H195.863L198.473 414.33H198.503L198.953 413.91ZM215.64 412.14L216.21 411.78L217.8 414.54L219.27 413.58L220.47 411.69L220.86 409.74L220.74 409.62L218.94 408.84H216.96L215.28 409.65L214.02 410.61L213.18 412.08V413.16H212.46V412.02L212.52 411.84L213.42 410.22L213.48 410.13L214.89 409.02L216.78 408.12H219.15L221.01 408.93L220.89 405.9L219.78 402.9L217.92 401.01L214.83 399.72H211.02L208.41 401.34L207.03 403.29L206.61 405.48H205.83L206.28 403.14L206.34 402.96L207.84 400.86L208.05 400.68L210.84 399.06L211.11 399H214.86L215.04 399.06L218.25 400.32L218.37 400.44L220.32 402.42L220.44 402.57L221.58 405.63L221.61 405.81L221.73 408.93L221.61 409.5L222.75 410.58L223.47 412.29V413.43H222.78V412.32L222.27 411.09L221.46 410.31L221.16 411.93L219.75 414.15L219.54 414.3L218.19 415.17L222.51 422.67L221.91 423.06L217.59 415.56L217.05 415.92H214.56V415.2H216.75L217.23 414.9L215.64 412.14ZM202.83 423L202.17 422.67L210.39 403.08L211.08 403.41L202.83 423ZM244.889 398.25L245.789 399.84L246.119 402.27L245.699 403.5L247.049 405.24L246.479 405.69L245.429 404.34L244.859 406.08L243.239 407.67L243.089 407.73L240.449 408.48L237.809 408.03L237.929 407.31L240.479 407.73L242.909 407.01L244.169 405.69L244.889 403.65L244.649 403.35L243.359 401.64L240.329 399.78H234.359L231.389 401.43L228.629 404.52L226.889 408.54V412.92L228.479 417.3L231.209 420.57L233.909 422.22H240.209L243.059 420.57L245.759 417.48L246.329 417.93L243.479 421.26L240.539 422.94L240.269 423H233.729L233.489 422.94L230.729 421.2L227.759 417.6L226.109 413.1V408.39L227.999 404.01L230.669 400.92L234.089 399H240.419L243.749 400.95L245.189 402.81L245.399 402.21L245.099 400.08L244.289 398.64L244.889 398.25ZM253.406 406.11L255.446 404.13L256.976 403.47L258.056 403.08H259.166L261.536 398.91L262.136 399.27L260.006 403.08H260.546L262.826 404.13L262.976 404.19L264.716 405.84L265.766 407.82L265.856 408.09V409.92H265.136V408.15L264.176 406.23L262.556 404.79L262.526 404.76L260.336 403.77H259.616L248.906 422.82H247.976L258.776 403.77H258.116L255.746 404.82H255.716L253.946 406.5L253.106 408.15V409.89H252.326V408.15L253.406 406.11ZM274.376 412.2L272.216 414.18L270.686 414.84L269.606 415.2H269.036L264.866 422.88H263.966L268.166 415.2H267.116L264.836 414.12L264.686 414.06L262.976 412.38L261.926 410.4L261.866 410.13V408.3H262.556V410.07L263.516 411.96L265.106 413.46L265.136 413.49L267.356 414.51L267.386 414.54H268.526L277.046 399L277.706 399.3L269.396 414.54H269.516H269.546L271.946 413.49H271.976L273.746 411.84V411.81L274.616 410.22V408.45H275.366V410.22L274.376 412.2ZM282.427 404.94V403.44L282.847 401.94L283.807 400.68L285.067 399.84L286.807 399.6L288.517 400.05L290.077 401.07L291.187 402.69L293.317 404.1H294.547L286.807 420.66L285.487 421.86L283.747 422.37H281.407L279.457 421.41L278.137 419.97L277.537 420.51L279.037 422.1L281.227 423.18H283.837L285.997 422.55L287.347 421.29L287.437 421.11L295.357 404.1H296.047L298.027 403.5L299.947 402.24L301.027 400.32L300.397 399.93L299.347 401.76L297.727 402.78L296.197 403.23H295.777L297.577 399.36L296.917 399L294.937 403.23H293.527L291.727 402.15L290.617 400.53L288.727 399.33L286.807 398.91L284.797 399.18L283.357 400.08L282.127 401.58L281.617 403.44V404.94H282.427ZM304.154 399H303.464V423H304.004L319.724 402.72L321.014 404.61L322.934 406.11L325.514 406.71L328.064 406.23L330.314 404.97L331.574 403.35L331.784 401.82H331.034L330.854 403.05L329.834 404.34L327.914 405.45L325.544 405.93H325.454L323.294 405.42L321.554 404.04L320.294 402.21L320.264 402.06L322.304 399.42L321.824 399L320.054 401.25L319.814 400.32L319.964 399H319.154L318.974 400.32L319.454 402L304.274 421.32L304.154 421.5V399ZM314.624 399.18L314.264 400.26L313.514 400.02L313.934 398.79L315.524 397.23L317.894 396.03L320.594 395.79L323.024 396.51L325.034 398.25L326.294 400.41L326.714 402.66L326.324 403.98L325.574 403.71L325.904 402.6V402.57V402.51L325.574 400.71V400.65L325.544 400.62L324.464 398.76L322.664 397.23L320.594 396.57L318.134 396.78L315.914 397.89L314.624 399.18ZM330.7 399.78L328.81 401.43L328.03 403.41V405.63V405.66L328.72 407.28L329.8 406.74L330.07 406.68H332.62V407.34H330.07H330.04L329.02 407.85L330.1 409.05L331.36 409.62H334.15L335.35 408.93L336.73 407.4L337.27 407.88L335.95 409.38L334.48 410.28L334.18 410.37L331.27 410.34L331 410.28L329.5 409.5L328.36 408.21H328.33L326.77 409.92L325.54 412.8V415.65L326.65 418.74L328.51 421.02L330.79 422.22L334.87 422.25L337.24 420.81L338.86 418.26V415.44H339.64V418.5L339.52 418.68L337.84 421.29L337.72 421.41L335.17 422.94L334.9 423H330.64L330.37 422.88L327.94 421.68L327.73 421.53L326.08 419.19L325.99 419.04L324.79 415.86V415.65V412.74L324.85 412.53L326.11 409.59L326.17 409.47L327.97 407.64L328.06 407.58L327.25 405.78L327.22 405.66V403.32L327.28 403.11L328.06 401.16L328.18 400.98L330.4 399.09L330.67 399H333.64L333.94 399.09L335.89 400.44L336.01 400.53L336.82 402.06L336.28 402.42L335.53 401.1L333.58 399.78H330.7Z" fill="#3E3C3B"/>
<path d="M1151.42 629.978L1151.41 629.992C1150.7 632.376 1149.95 634.722 1149.16 637.033L1149.64 637.193C1148.03 641.927 1146.29 646.508 1144.42 650.94L1143.96 650.745C1142.01 655.353 1139.93 659.797 1137.71 664.08L1138.15 664.31C1135.85 668.742 1133.42 673.003 1130.85 677.094L1130.43 676.828C1127.78 681.043 1125 685.078 1122.08 688.935L1122.48 689.236C1119.49 693.205 1116.35 696.987 1113.1 700.584L1112.73 700.248C1109.4 703.922 1105.95 707.402 1102.38 710.691L1102.72 711.059C1099.08 714.415 1095.32 717.574 1091.45 720.538L1091.15 720.142C1087.23 723.141 1083.21 725.941 1079.09 728.545L1079.36 728.967C1075.19 731.605 1070.92 734.041 1066.56 736.279L1066.33 735.834C1061.97 738.081 1057.51 740.128 1052.99 741.979L1053.18 742.442C1048.62 744.307 1044 745.973 1039.31 747.443L1039.16 746.966C1034.48 748.436 1029.75 749.71 1024.97 750.791L1025.08 751.279C1020.29 752.365 1015.45 753.257 1010.59 753.958L1010.52 753.463C1005.67 754.164 1000.79 754.674 995.901 754.996L995.934 755.495C991.025 755.819 986.109 755.955 981.2 755.905L981.205 755.405C976.298 755.356 971.398 755.121 966.522 754.705L966.479 755.203C961.574 754.784 956.692 754.181 951.85 753.399L951.93 752.905C947.079 752.121 942.268 751.156 937.514 750.014L937.397 750.5C932.606 749.349 927.871 748.019 923.21 746.512L923.364 746.036C921.029 745.282 918.713 744.483 916.417 743.64C914.178 742.818 911.947 741.968 909.725 741.09L909.541 741.555C905.095 739.798 900.687 737.931 896.33 735.956L896.537 735.501C892.183 733.528 887.88 731.447 883.644 729.264L883.414 729.708C879.151 727.511 874.954 725.209 870.836 722.807L871.088 722.375C866.945 719.959 862.883 717.441 858.916 714.825L858.641 715.242C854.625 712.594 850.706 709.845 846.898 707.001L847.198 706.6C843.348 703.724 839.613 700.75 836.007 697.682L835.683 698.063C832.008 694.937 828.467 691.713 825.075 688.395L825.424 688.038C821.982 684.671 818.694 681.209 815.577 677.655L815.201 677.985C812.018 674.356 809.013 670.631 806.202 666.817L806.604 666.52C803.752 662.648 801.101 658.683 798.67 654.631L798.241 654.889C795.764 650.758 793.513 646.535 791.51 642.227L791.964 642.016C789.946 637.677 788.181 633.251 786.687 628.744L786.212 628.901C784.708 624.361 783.478 619.738 782.542 615.039L783.032 614.941C782.108 610.299 781.473 605.582 781.146 600.795L780.647 600.829C780.326 596.117 780.301 591.339 780.593 586.498L781.092 586.528C781.373 581.864 781.948 577.141 782.835 572.364L782.344 572.273C783.197 567.677 784.338 563.032 785.78 558.342L786.258 558.489C786.951 556.236 787.714 553.972 788.549 551.698C789.44 549.269 790.416 546.85 791.471 544.443L791.013 544.242C793.083 539.522 795.459 534.849 798.115 530.237L798.548 530.486C801.115 526.029 803.946 521.629 807.016 517.298L806.608 517.009C809.598 512.791 812.814 508.64 816.235 504.568L816.618 504.889C819.936 500.939 823.448 497.063 827.134 493.272L826.775 492.924C830.394 489.201 834.18 485.562 838.113 482.016L838.447 482.387C842.299 478.914 846.293 475.531 850.411 472.248L850.099 471.857C854.175 468.607 858.372 465.455 862.674 462.41L862.962 462.818C867.217 459.807 871.573 456.901 876.015 454.109L875.749 453.686C880.181 450.901 884.698 448.23 889.283 445.682L889.526 446.119C894.104 443.576 898.749 441.156 903.447 438.868L903.228 438.419C907.953 436.118 912.73 433.951 917.543 431.927L917.737 432.388C922.587 430.349 927.472 428.456 932.377 426.719L932.21 426.248C937.185 424.485 942.179 422.883 947.174 421.451L947.312 421.932C952.391 420.476 957.471 419.196 962.533 418.103L962.427 417.615C967.611 416.496 972.775 415.572 977.902 414.856L977.971 415.351C983.218 414.618 988.423 414.102 993.565 413.816L993.537 413.316C998.854 413.02 1004.1 412.969 1009.27 413.175L1009.25 413.675C1014.55 413.887 1019.75 414.373 1024.83 415.146L1024.91 414.652C1030.16 415.451 1035.28 416.556 1040.25 417.985L1040.11 418.465C1042.63 419.19 1045.11 419.998 1047.55 420.892C1049.82 421.725 1052.06 422.599 1054.28 423.513L1054.47 423.051C1058.97 424.902 1063.36 426.916 1067.64 429.084L1067.41 429.53C1071.73 431.72 1075.93 434.067 1080.02 436.561L1080.28 436.134C1084.42 438.664 1088.44 441.345 1092.32 444.167L1092.02 444.571C1095.94 447.417 1099.72 450.406 1103.35 453.529L1103.67 453.15C1107.35 456.31 1110.88 459.607 1114.26 463.03L1113.9 463.381C1117.29 466.821 1120.53 470.389 1123.6 474.074L1123.98 473.754C1127.08 477.474 1130.01 481.313 1132.77 485.259L1132.36 485.545C1135.12 489.501 1137.7 493.566 1140.1 497.727L1140.53 497.478C1142.94 501.668 1145.17 505.957 1147.19 510.332L1146.74 510.542C1148.76 514.911 1150.58 519.367 1152.2 523.898L1152.67 523.73C1154.29 528.273 1155.71 532.89 1156.91 537.572L1156.42 537.696C1157.61 542.346 1158.59 547.06 1159.34 551.826L1159.84 551.747C1160.59 556.496 1161.12 561.296 1161.42 566.137L1160.92 566.168C1161.22 570.942 1161.3 575.756 1161.14 580.599L1161.64 580.615C1161.49 585.398 1161.11 590.21 1160.5 595.039L1160 594.976C1159.4 599.699 1158.58 604.439 1157.53 609.187L1158.01 609.295C1156.98 613.952 1155.73 618.615 1154.24 623.277L1153.77 623.125C1153.04 625.406 1152.26 627.685 1151.42 629.964L1151.42 629.978Z" stroke="#3E3C3B" stroke-dasharray="15 15"/>
</g>
<defs>
<filter id="filter0_f_166_1846" x="-729" y="110" width="2216" height="2349" filterUnits="userSpaceOnUse" color-interpolation-filters="sRGB">
<feFlood flood-opacity="0" result="BackgroundImageFix"/>
<feBlend mode="normal" in="SourceGraphic" in2="BackgroundImageFix" result="shape"/>
<feGaussianBlur stdDeviation="200" result="effect1_foregroundBlur_166_1846"/>
</filter>
<clipPath id="clip0_166_1846">
<rect width="1205" height="838" fill="white"/>
</clipPath>
</defs>
</svg>
