<svg width="475" height="337" viewBox="0 0 475 337" fill="none" xmlns="http://www.w3.org/2000/svg">
<path d="M474.5 186C474.5 227.467 448.063 265.08 405.17 292.351C362.282 319.618 303.004 336.5 237.5 336.5C171.997 336.5 112.718 319.618 69.8304 292.351C26.9371 265.08 0.5 227.467 0.5 186C0.5 165.351 13.2813 143.424 34.6421 122.109C55.9893 100.808 85.8346 80.1917 119.797 62.1685C187.728 26.1183 272.022 0.5 337.5 0.5C370.227 0.5 395.126 6.90006 414.072 17.7688C433.014 28.6353 446.038 43.9875 454.99 61.9499C472.91 97.9054 474.5 144.289 474.5 186Z" stroke="#3E3C3B"/>
</svg>
