<svg width="41" height="40" viewBox="0 0 41 40" fill="none" xmlns="http://www.w3.org/2000/svg">
<path d="M32.5306 11.0297L32.5306 11.0297C31.3295 10.3896 30.3428 9.42741 29.6879 8.26075L29.6879 8.26073L27.6532 4.63613C24.5581 -0.878712 16.4387 -0.878712 13.3436 4.63613L13.3435 4.63625L11.3105 8.26075C11.3105 8.26079 11.3105 8.26084 11.3105 8.26089C10.6556 9.42749 9.66895 10.3897 8.4679 11.0297L8.46788 11.0297L4.74788 13.0122C-0.915945 16.03 -0.91596 23.9699 4.74784 26.9877C4.74785 26.9877 4.74786 26.9878 4.74788 26.9878L8.46788 28.9703L8.4679 28.9703C9.66899 29.6104 10.6557 30.5726 11.3105 31.7393L11.3106 31.7393L13.3453 35.3639C13.3453 35.3639 13.3453 35.3639 13.3453 35.3639C16.4404 40.8787 24.5598 40.8787 27.6549 35.3639C27.6549 35.3639 27.6549 35.3639 27.6549 35.3639L29.6897 31.7393L29.6897 31.7393C30.3445 30.5726 31.3312 29.6104 32.5323 28.9703L32.5323 28.9703L36.2524 26.9877L36.2524 26.9877C41.9161 23.9682 41.9163 16.03 36.2506 13.0122L32.5306 11.0297ZM20.4139 30.4429C18.8483 25.4523 14.8368 21.5372 9.7327 20C14.8369 18.4627 18.8485 14.5476 20.414 9.55684C21.9796 14.5475 25.991 18.4626 31.0951 19.9999C25.99 21.5369 21.9792 25.4512 20.4139 30.4429Z" fill="#CA0D63" stroke="black" stroke-linejoin="round"/>
</svg>
