<svg width="99" height="113" viewBox="0 0 99 113" fill="none" xmlns="http://www.w3.org/2000/svg">
<circle cx="49.5" cy="63.5" r="49.5" transform="rotate(90 49.5 63.5)" fill="url(#paint0_radial_718_25)"/>
<path d="M48.528 100.488C55.248 100.488 59.28 97.032 59.28 90.504C59.28 89.736 59.184 88.968 59.088 88.392C61.2 91.368 64.272 93.192 67.344 93.192C72.72 93.192 78.864 87.24 78.864 81.672C78.864 78.696 77.04 75.624 74.064 73.416C74.736 73.512 75.408 73.608 76.176 73.608C82.704 73.608 86.16 69.576 86.16 62.856C86.16 56.136 82.704 52.104 76.176 52.104C75.408 52.104 74.736 52.2 74.064 52.296C77.232 49.8 78.864 47.016 78.864 43.944C78.864 37.896 73.584 32.808 67.344 32.808C64.56 32.808 61.488 34.44 59.088 37.32C59.184 36.744 59.28 35.976 59.28 35.208C59.28 28.68 55.248 25.224 48.528 25.224C41.808 25.224 37.776 28.68 37.776 35.208C37.776 35.976 37.872 36.744 37.968 37.32C35.952 34.632 32.688 32.808 29.712 32.808C23.28 32.808 18.192 37.896 18.192 43.944C18.192 47.016 20.016 50.088 22.992 52.296H22.416L20.88 52.2C16.08 51.912 10.896 55.56 10.896 62.856C10.896 69.576 14.352 73.608 20.88 73.608C21.648 73.608 22.416 73.512 22.992 73.416C20.016 75.528 18.192 78.6 18.192 81.672C18.192 87.24 24.336 93.192 29.712 93.192C32.784 93.192 35.952 91.272 37.968 88.392C37.872 88.968 37.776 89.736 37.776 90.504C37.776 97.032 41.808 100.488 48.528 100.488ZM44.688 51.144L42.192 45.192C41.04 42.408 40.08 38.472 40.08 36.36C40.08 30.984 43.248 27.72 48.528 27.72C53.808 27.72 56.976 31.176 56.976 36.36C56.976 38.472 56.016 42.504 54.864 45.192L52.368 51.144L51.024 50.76C51.216 49.992 53.712 42.216 53.712 37.896C53.712 34.248 51.504 31.56 48.528 31.56C45.552 31.56 43.344 34.248 43.344 37.896C43.344 39.816 43.824 42.312 44.688 45.384L46.032 50.76L44.688 51.144ZM37.392 57.288L31.44 54.984C26.16 52.968 20.88 48.744 20.88 43.848C20.88 39.24 25.008 35.4 29.328 35.4C34.32 35.4 38.544 40.968 40.464 45.96L42.768 51.912L41.616 52.488L38.928 47.688C37.392 44.616 33.936 39.432 29.616 39.432C26.928 39.528 24.912 41.352 24.912 44.136C24.912 47.4 27.312 49.608 33.36 53.256L38.16 56.136L37.392 57.288ZM59.472 57.288L58.896 56.136C62.16 54.216 71.952 49.32 71.952 44.136C71.952 41.448 69.936 39.432 67.248 39.432C63.312 39.432 59.664 44.616 58.128 47.688L55.44 52.488L54.096 51.912L56.592 45.96C59.568 38.856 63.408 35.4 67.728 35.4C72.048 35.4 76.176 39.144 76.176 43.848C76.176 48.648 71.184 52.872 65.616 54.984L59.472 57.288ZM48.528 72.648C43.056 72.648 38.736 68.328 38.736 62.856C38.736 57.384 43.056 53.064 48.528 53.064C54 53.064 58.32 57.384 58.32 62.856C58.32 68.328 54 72.648 48.528 72.648ZM22.032 71.496C16.656 71.496 13.392 68.328 13.392 63.048C13.392 57.768 16.848 54.6 22.032 54.6C24.144 54.6 28.176 55.56 30.864 56.712L36.816 59.208L36.432 60.552L29.712 58.824C27.216 58.152 25.2 57.864 23.568 57.864C19.92 57.864 17.232 60.072 17.232 63.048C17.232 66.024 19.92 68.232 23.568 68.232C25.68 68.232 28.176 67.944 31.056 67.08L36.432 65.544L36.816 66.888L30.864 69.384C28.08 70.536 24.144 71.496 22.032 71.496ZM75.024 71.496C72.816 71.496 68.688 70.536 66 69.384L60.048 66.888L60.432 65.544C61.488 65.832 69.168 68.232 73.488 68.232C77.04 68.232 79.824 66.12 79.824 63.048C79.824 60.072 77.04 57.864 73.488 57.864C71.856 57.864 69.744 58.152 67.248 58.824L60.432 60.552L60.048 59.208L66 56.712C68.688 55.56 72.816 54.6 75.024 54.6C80.304 54.6 83.664 57.864 83.664 63.048C83.664 68.136 80.4 71.496 75.024 71.496ZM29.52 90.504C25.392 90.504 20.976 85.992 20.976 81.864C20.976 77.448 25.488 73.32 31.632 70.92L37.584 68.616L38.16 69.768C34.992 71.688 25.104 76.584 25.104 81.768C25.104 84.456 27.024 86.472 29.808 86.472C33.744 86.472 37.392 81.288 38.928 78.216L41.808 73.224L42.96 73.992L40.464 79.944C37.008 88.104 33.456 90.504 29.52 90.504ZM67.536 90.504C62.736 90.504 58.512 85.512 56.4 79.944L54.096 73.992L55.248 73.224L57.936 78.216C59.568 81.192 62.928 86.472 67.248 86.472C69.936 86.472 71.952 84.456 71.952 81.768C71.952 80.328 71.376 78.888 70.32 77.544C69.264 76.2 66.864 74.568 63.504 72.648L58.704 69.768L59.472 68.616L65.424 70.92C71.376 73.224 75.984 77.352 75.984 82.056C75.984 86.088 71.568 90.504 67.536 90.504ZM48.528 97.992C43.44 97.992 40.08 94.728 40.08 89.352C40.08 87.24 41.04 83.208 42.192 80.52L44.688 74.568L46.032 74.952L44.304 81.672C43.632 84.168 43.344 86.184 43.344 87.816C43.344 91.368 45.456 94.152 48.528 94.152C51.504 94.152 53.712 91.368 53.712 87.816C53.712 85.704 53.424 83.208 52.56 80.328L51.024 74.952L52.368 74.568L54.864 80.52C56.016 83.304 56.976 87.24 56.976 89.352C56.976 94.632 53.712 97.992 48.528 97.992Z" fill="#5C5CBD"/>
<defs>
<radialGradient id="paint0_radial_718_25" cx="0" cy="0" r="1" gradientUnits="userSpaceOnUse" gradientTransform="translate(49.5 63.5) rotate(90) scale(49.5)">
<stop offset="0.151042" stop-color="#D9D9D9"/>
<stop offset="0.604167" stop-color="#FFA5D5"/>
<stop offset="0.767585" stop-color="#CEB0FF"/>
<stop offset="0.932292" stop-color="#87D4FF"/>
</radialGradient>
</defs>
</svg>
