<svg width="47" height="47" viewBox="0 0 47 47" fill="none" xmlns="http://www.w3.org/2000/svg">
<path d="M10.18 40.62C11.2 40.62 12.22 40.14 13.12 39.24C14.44 37.92 15.4 36.18 16.48 34.08C17.44 32.22 18.58 30.24 20.32 27.96C21.04 28.44 21.88 28.8 22.78 28.98C22.36 31.8 21.76 33.96 21.1 36C20.38 38.28 19.84 40.14 19.84 42C19.84 44.58 21.34 46.08 23.74 46.08C26.14 46.08 27.64 44.58 27.64 42C27.64 40.14 27.1 38.28 26.38 36C25.72 33.96 25.18 31.8 24.76 28.98C25.66 28.86 26.5 28.5 27.22 27.96C28.9 30.3 30.04 32.22 31 34.08C32.08 36.18 33.04 37.92 34.36 39.24C35.26 40.14 36.28 40.62 37.3 40.62C38.26 40.62 39.16 40.2 40 39.36C40.84 38.52 41.26 37.62 41.26 36.66C41.26 35.64 40.78 34.62 39.88 33.72C38.56 32.4 36.82 31.44 34.72 30.36C32.86 29.4 30.94 28.26 28.6 26.58C29.14 25.86 29.44 25.02 29.62 24.12C32.44 24.54 34.6 25.08 36.64 25.74C38.92 26.46 40.78 27 42.64 27C45.22 27 46.72 25.5 46.72 23.1C46.72 20.7 45.22 19.2 42.64 19.2C40.78 19.2 38.92 19.74 36.64 20.46C34.6 21.12 32.44 21.72 29.62 22.14C29.44 21.18 29.08 20.4 28.6 19.68C30.88 17.94 32.86 16.8 34.72 15.84C36.82 14.76 38.56 13.8 39.88 12.48C40.78 11.58 41.26 10.56 41.26 9.54C41.26 8.58 40.84 7.68 40 6.84C39.16 6 38.26 5.58 37.3 5.58C36.28 5.58 35.26 6.06 34.36 6.96C33.04 8.28 32.08 10.02 31 12.12C30.04 13.98 28.9 15.96 27.16 18.24C26.5 17.76 25.66 17.4 24.76 17.22C25.18 14.4 25.72 12.24 26.38 10.2C27.1 7.92 27.64 6.06 27.64 4.2C27.64 1.62 26.14 0.119999 23.74 0.119999C21.34 0.119999 19.84 1.62 19.84 4.2C19.84 6.06 20.38 7.92 21.1 10.2C21.76 12.24 22.36 14.4 22.78 17.28C21.88 17.4 21.04 17.76 20.32 18.3C18.58 15.96 17.44 13.98 16.48 12.12C15.4 10.02 14.44 8.28 13.12 6.96C12.22 6.06 11.2 5.58 10.18 5.58C9.22 5.58 8.32 6 7.48 6.84C6.64 7.68 6.22 8.58 6.22 9.54C6.22 10.56 6.7 11.58 7.6 12.48C8.92 13.8 10.66 14.76 12.76 15.84C14.62 16.8 16.6 17.94 18.94 19.68C18.4 20.4 18.04 21.24 17.92 22.14C15.04 21.72 12.88 21.12 10.84 20.46C8.56 19.74 6.7 19.2 4.84 19.2C2.26 19.2 0.76 20.7 0.76 23.1C0.76 25.5 2.26 27 4.84 27C6.7 27 8.56 26.46 10.84 25.74C12.88 25.08 15.04 24.54 17.86 24.12C18.04 25.02 18.4 25.86 18.88 26.52C16.6 28.26 14.62 29.4 12.76 30.36C10.66 31.44 8.92 32.4 7.6 33.72C6.7 34.62 6.22 35.64 6.22 36.66C6.22 37.62 6.64 38.52 7.48 39.36C8.32 40.2 9.22 40.62 10.18 40.62Z" fill="#2F43F4"/>
<path d="M13.12 39.24L12.4129 38.5329L13.12 39.24ZM16.48 34.08L15.5914 33.6214L15.5907 33.6227L16.48 34.08ZM20.32 27.96L20.8747 27.1279L20.0942 26.6076L19.525 27.3533L20.32 27.96ZM22.78 28.98L23.7691 29.1273L23.9093 28.1861L22.9761 27.9994L22.78 28.98ZM21.1 36L20.1485 35.6922L20.1464 35.6989L21.1 36ZM26.38 36L27.3336 35.6989L27.3314 35.6922L26.38 36ZM24.76 28.98L24.6278 27.9888L23.6213 28.123L23.7709 29.1273L24.76 28.98ZM27.22 27.96L28.0323 27.3768L27.4368 26.5474L26.62 27.16L27.22 27.96ZM31 34.08L31.8893 33.6227L31.8886 33.6214L31 34.08ZM34.36 39.24L33.6529 39.9471V39.9471L34.36 39.24ZM40 39.36L39.2929 38.6529L40 39.36ZM39.88 33.72L39.1729 34.4271V34.4271L39.88 33.72ZM34.72 30.36L34.2614 31.2486L34.2627 31.2493L34.72 30.36ZM28.6 26.58L27.8 25.98L27.1874 26.7968L28.0168 27.3923L28.6 26.58ZM29.62 24.12L29.7673 23.1309L28.826 22.9907L28.6394 23.9239L29.62 24.12ZM36.64 25.74L36.3322 26.6915L36.3389 26.6936L36.64 25.74ZM36.64 20.46L36.3389 19.5064L36.3322 19.5086L36.64 20.46ZM29.62 22.14L28.6371 22.3243L28.8146 23.271L29.7673 23.1291L29.62 22.14ZM28.6 19.68L27.9933 18.885L27.2476 19.4542L27.768 20.2347L28.6 19.68ZM34.72 15.84L34.2627 14.9507L34.2614 14.9514L34.72 15.84ZM39.88 12.48L39.1729 11.7729L39.88 12.48ZM34.36 6.96L33.6529 6.25289L33.6529 6.25289L34.36 6.96ZM31 12.12L31.8886 12.5786L31.8893 12.5773L31 12.12ZM27.16 18.24L26.5718 19.0487L27.3621 19.6235L27.955 18.8467L27.16 18.24ZM24.76 17.22L23.7709 17.0727L23.6307 18.0139L24.5639 18.2006L24.76 17.22ZM26.38 10.2L27.3315 10.5078L27.3336 10.5011L26.38 10.2ZM21.1 10.2L20.1464 10.5011L20.1486 10.5078L21.1 10.2ZM22.78 17.28L22.9122 18.2712L23.9156 18.1374L23.7695 17.1357L22.78 17.28ZM20.32 18.3L19.5175 18.8967L20.1167 19.7025L20.92 19.1L20.32 18.3ZM16.48 12.12L15.5907 12.5773L15.5914 12.5786L16.48 12.12ZM7.6 12.48L6.89289 13.1871L7.6 12.48ZM12.76 15.84L13.2186 14.9514L13.2173 14.9507L12.76 15.84ZM18.94 19.68L19.74 20.28L20.3425 19.4767L19.5367 18.8775L18.94 19.68ZM17.92 22.14L17.7757 23.1295L18.7774 23.2756L18.9112 22.2722L17.92 22.14ZM10.84 20.46L11.1478 19.5085L11.1411 19.5064L10.84 20.46ZM10.84 25.74L11.1411 26.6936L11.1478 26.6914L10.84 25.74ZM17.86 24.12L18.8406 23.9239L18.6539 22.9907L17.7127 23.1309L17.86 24.12ZM18.88 26.52L19.4867 27.3149L20.2635 26.7221L19.6887 25.9318L18.88 26.52ZM12.76 30.36L13.2173 31.2493L13.2186 31.2486L12.76 30.36ZM7.6 33.72L6.89289 33.0129L7.6 33.72ZM7.48 39.36L8.18711 38.6529L7.48 39.36ZM10.18 41.62C11.5284 41.62 12.7896 40.9846 13.8271 39.9471L12.4129 38.5329C11.6504 39.2954 10.8716 39.62 10.18 39.62V41.62ZM13.8271 39.9471C15.2727 38.5016 16.2954 36.6254 17.3693 34.5373L15.5907 33.6227C14.5046 35.7346 13.6074 37.3384 12.4129 38.5329L13.8271 39.9471ZM17.3686 34.5386C18.3103 32.7141 19.4202 30.7874 21.115 28.5667L19.525 27.3533C17.7398 29.6926 16.5697 31.7259 15.5914 33.6214L17.3686 34.5386ZM19.7653 28.792C20.5901 29.3419 21.5513 29.7541 22.5839 29.9606L22.9761 27.9994C22.2087 27.8459 21.4899 27.5381 20.8747 27.1279L19.7653 28.792ZM21.7909 28.8327C21.3814 31.5823 20.7974 33.6866 20.1486 35.6922L22.0514 36.3078C22.7226 34.2334 23.3386 32.0177 23.7691 29.1273L21.7909 28.8327ZM20.1464 35.6989C19.4318 37.9618 18.84 39.9633 18.84 42H20.84C20.84 40.3167 21.3282 38.5982 22.0536 36.3011L20.1464 35.6989ZM18.84 42C18.84 43.4821 19.2739 44.7755 20.1714 45.7029C21.0724 46.6339 22.3284 47.08 23.74 47.08V45.08C22.7517 45.08 22.0576 44.7761 21.6086 44.3121C21.1561 43.8445 20.84 43.0979 20.84 42H18.84ZM23.74 47.08C25.1517 47.08 26.4076 46.6339 27.3086 45.7029C28.2061 44.7755 28.64 43.4821 28.64 42H26.64C26.64 43.0979 26.3239 43.8445 25.8714 44.3121C25.4224 44.7761 24.7283 45.08 23.74 45.08V47.08ZM28.64 42C28.64 39.9633 28.0482 37.9618 27.3336 35.6989L25.4264 36.3011C26.1518 38.5982 26.64 40.3167 26.64 42H28.64ZM27.3314 35.6922C26.6881 33.7036 26.1608 31.5973 25.7491 28.8327L23.7709 29.1273C24.1992 32.0027 24.7519 34.2164 25.4286 36.3078L27.3314 35.6922ZM24.8922 29.9712C25.9727 29.8271 26.972 29.396 27.82 28.76L26.62 27.16C26.028 27.604 25.3473 27.8928 24.6278 27.9888L24.8922 29.9712ZM26.4077 28.5432C28.0589 30.8432 29.1735 32.7215 30.1114 34.5386L31.8886 33.6214C30.9065 31.7185 29.7411 29.7568 28.0323 27.3768L26.4077 28.5432ZM30.1107 34.5373C31.1846 36.6254 32.2074 38.5016 33.6529 39.9471L35.0671 38.5329C33.8727 37.3384 32.9754 35.7346 31.8893 33.6227L30.1107 34.5373ZM33.6529 39.9471C34.6904 40.9846 35.9516 41.62 37.3 41.62V39.62C36.6084 39.62 35.8296 39.2954 35.0671 38.5329L33.6529 39.9471ZM37.3 41.62C38.5852 41.62 39.7268 41.0475 40.7071 40.0671L39.2929 38.6529C38.5932 39.3525 37.9348 39.62 37.3 39.62V41.62ZM40.7071 40.0671C41.6875 39.0868 42.26 37.9452 42.26 36.66H40.26C40.26 37.2948 39.9925 37.9532 39.2929 38.6529L40.7071 40.0671ZM42.26 36.66C42.26 35.3116 41.6246 34.0504 40.5871 33.0129L39.1729 34.4271C39.9354 35.1896 40.26 35.9684 40.26 36.66H42.26ZM40.5871 33.0129C39.1416 31.5673 37.2654 30.5446 35.1774 29.4707L34.2627 31.2493C36.3746 32.3354 37.9784 33.2327 39.1729 34.4271L40.5871 33.0129ZM35.1786 29.4714C33.3615 28.5335 31.4832 27.4189 29.1832 25.7677L28.0168 27.3923C30.3969 29.1011 32.3585 30.2665 34.2614 31.2486L35.1786 29.4714ZM29.4 27.18C30.0595 26.3007 30.403 25.3043 30.6006 24.3161L28.6394 23.9239C28.4771 24.7357 28.2205 25.4193 27.8 25.98L29.4 27.18ZM29.4727 25.1091C32.2373 25.5208 34.3436 26.0481 36.3322 26.6914L36.9478 24.7886C34.8564 24.1119 32.6427 23.5592 29.7673 23.1309L29.4727 25.1091ZM36.3389 26.6936C38.6018 27.4082 40.6033 28 42.64 28V26C40.9567 26 39.2382 25.5118 36.9411 24.7864L36.3389 26.6936ZM42.64 28C44.1221 28 45.4155 27.5661 46.3429 26.6686C47.2739 25.7676 47.72 24.5117 47.72 23.1H45.72C45.72 24.0883 45.4161 24.7824 44.9521 25.2314C44.4845 25.6839 43.7379 26 42.64 26V28ZM47.72 23.1C47.72 21.6883 47.2739 20.4324 46.3429 19.5314C45.4155 18.6339 44.1221 18.2 42.64 18.2V20.2C43.7379 20.2 44.4845 20.5161 44.9521 20.9686C45.4161 21.4176 45.72 22.1116 45.72 23.1H47.72ZM42.64 18.2C40.6033 18.2 38.6018 18.7918 36.3389 19.5064L36.9411 21.4136C39.2382 20.6882 40.9567 20.2 42.64 20.2V18.2ZM36.3322 19.5086C34.3266 20.1574 32.2223 20.7414 29.4727 21.1509L29.7673 23.1291C32.6577 22.6986 34.8734 22.0826 36.9478 21.4114L36.3322 19.5086ZM30.6029 21.9557C30.3942 20.8428 29.9742 19.9386 29.4321 19.1253L27.768 20.2347C28.1858 20.8614 28.4858 21.5172 28.6371 22.3243L30.6029 21.9557ZM29.2067 20.4749C31.4274 18.7802 33.3541 17.6703 35.1786 16.7286L34.2614 14.9514C32.3659 15.9297 30.3326 17.0998 27.9933 18.885L29.2067 20.4749ZM35.1774 16.7293C37.2654 15.6554 39.1416 14.6326 40.5871 13.1871L39.1729 11.7729C37.9784 12.9673 36.3746 13.8646 34.2627 14.9507L35.1774 16.7293ZM40.5871 13.1871C41.6246 12.1496 42.26 10.8884 42.26 9.54H40.26C40.26 10.2316 39.9354 11.0104 39.1729 11.7729L40.5871 13.1871ZM42.26 9.54C42.26 8.25477 41.6875 7.11324 40.7071 6.13289L39.2929 7.54711C39.9925 8.24676 40.26 8.90523 40.26 9.54H42.26ZM40.7071 6.13289C39.7268 5.15255 38.5852 4.58 37.3 4.58V6.58C37.9348 6.58 38.5932 6.84745 39.2929 7.54711L40.7071 6.13289ZM37.3 4.58C35.9516 4.58 34.6904 5.21536 33.6529 6.25289L35.0671 7.6671C35.8296 6.90464 36.6084 6.58 37.3 6.58V4.58ZM33.6529 6.25289C32.2074 7.69843 31.1846 9.57461 30.1107 11.6627L31.8893 12.5773C32.9754 10.4654 33.8727 8.86156 35.0671 7.6671L33.6529 6.25289ZM30.1114 11.6614C29.1697 13.4859 28.0598 15.4126 26.3651 17.6333L27.955 18.8467C29.7402 16.5074 30.9103 14.4741 31.8886 12.5786L30.1114 11.6614ZM27.7482 17.4313C26.9602 16.8582 25.9834 16.4449 24.9561 16.2394L24.5639 18.2006C25.3366 18.3551 26.0398 18.6618 26.5718 19.0487L27.7482 17.4313ZM25.7491 17.3673C26.1608 14.6027 26.6881 12.4964 27.3314 10.5078L25.4286 9.89218C24.7519 11.9836 24.1992 14.1973 23.7709 17.0727L25.7491 17.3673ZM27.3336 10.5011C28.0482 8.23823 28.64 6.23666 28.64 4.2H26.64C26.64 5.88333 26.1518 7.60176 25.4264 9.89887L27.3336 10.5011ZM28.64 4.2C28.64 2.71785 28.2061 1.42447 27.3086 0.497076C26.4076 -0.433914 25.1517 -0.880001 23.74 -0.880001V1.12C24.7283 1.12 25.4224 1.42391 25.8714 1.88792C26.3239 2.35552 26.64 3.10214 26.64 4.2H28.64ZM23.74 -0.880001C22.3284 -0.880001 21.0724 -0.433914 20.1714 0.497076C19.2739 1.42447 18.84 2.71785 18.84 4.2H20.84C20.84 3.10214 21.1561 2.35552 21.6086 1.88792C22.0576 1.42391 22.7517 1.12 23.74 1.12V-0.880001ZM18.84 4.2C18.84 6.23666 19.4318 8.23823 20.1464 10.5011L22.0536 9.89887C21.3282 7.60176 20.84 5.88333 20.84 4.2H18.84ZM20.1486 10.5078C20.7971 12.5124 21.3809 14.6157 21.7905 17.4243L23.7695 17.1357C23.3391 14.1843 22.7229 11.9676 22.0514 9.89218L20.1486 10.5078ZM22.6478 16.2888C21.5673 16.4328 20.568 16.864 19.72 17.5L20.92 19.1C21.512 18.656 22.1927 18.3671 22.9122 18.2712L22.6478 16.2888ZM21.1225 17.7033C19.4224 15.417 18.3102 13.4856 17.3686 11.6614L15.5914 12.5786C16.5698 14.4743 17.7376 16.503 19.5175 18.8967L21.1225 17.7033ZM17.3693 11.6627C16.2954 9.57461 15.2727 7.69843 13.8271 6.25289L12.4129 7.6671C13.6074 8.86156 14.5046 10.4654 15.5907 12.5773L17.3693 11.6627ZM13.8271 6.25289C12.7896 5.21535 11.5284 4.58 10.18 4.58V6.58C10.8716 6.58 11.6504 6.90464 12.4129 7.6671L13.8271 6.25289ZM10.18 4.58C8.89477 4.58 7.75324 5.15255 6.77289 6.13289L8.18711 7.54711C8.88676 6.84745 9.54523 6.58 10.18 6.58V4.58ZM6.77289 6.13289C5.79255 7.11324 5.22 8.25477 5.22 9.54H7.22C7.22 8.90523 7.48745 8.24676 8.18711 7.54711L6.77289 6.13289ZM5.22 9.54C5.22 10.8884 5.85536 12.1496 6.89289 13.1871L8.30711 11.7729C7.54464 11.0104 7.22 10.2316 7.22 9.54H5.22ZM6.89289 13.1871C8.33844 14.6326 10.2146 15.6554 12.3027 16.7293L13.2173 14.9507C11.1054 13.8646 9.50156 12.9673 8.30711 11.7729L6.89289 13.1871ZM12.3014 16.7286C14.1257 17.6702 16.057 18.7824 18.3433 20.4825L19.5367 18.8775C17.143 17.0976 15.1143 15.9298 13.2186 14.9514L12.3014 16.7286ZM18.14 19.08C17.504 19.928 17.0729 20.9273 16.9288 22.0078L18.9112 22.2722C19.0072 21.5527 19.296 20.872 19.74 20.28L18.14 19.08ZM18.0643 21.1505C15.2557 20.7409 13.1524 20.1571 11.1478 19.5086L10.5322 21.4114C12.6076 22.0829 14.8243 22.6991 17.7757 23.1295L18.0643 21.1505ZM11.1411 19.5064C8.87823 18.7918 6.87667 18.2 4.84 18.2V20.2C6.52333 20.2 8.24177 20.6882 10.5389 21.4136L11.1411 19.5064ZM4.84 18.2C3.35785 18.2 2.06447 18.6339 1.13708 19.5314C0.206088 20.4324 -0.24 21.6883 -0.24 23.1H1.76C1.76 22.1116 2.06391 21.4176 2.52792 20.9686C2.99553 20.5161 3.74215 20.2 4.84 20.2V18.2ZM-0.24 23.1C-0.24 24.5117 0.206088 25.7676 1.13708 26.6686C2.06447 27.5661 3.35785 28 4.84 28V26C3.74215 26 2.99553 25.6839 2.52792 25.2314C2.06391 24.7824 1.76 24.0883 1.76 23.1H-0.24ZM4.84 28C6.87667 28 8.87823 27.4082 11.1411 26.6936L10.5389 24.7864C8.24177 25.5118 6.52333 26 4.84 26V28ZM11.1478 26.6914C13.1364 26.0481 15.2427 25.5208 18.0073 25.1091L17.7127 23.1309C14.8373 23.5592 12.6236 24.1119 10.5322 24.7886L11.1478 26.6914ZM16.8794 24.3161C17.0849 25.3434 17.4982 26.3202 18.0713 27.1082L19.6887 25.9318C19.3018 25.3998 18.9951 24.6966 18.8406 23.9239L16.8794 24.3161ZM18.2733 25.725C16.0526 27.4198 14.1259 28.5297 12.3014 29.4714L13.2186 31.2486C15.1141 30.2703 17.1474 29.1002 19.4867 27.3149L18.2733 25.725ZM12.3027 29.4707C10.2146 30.5446 8.33844 31.5673 6.89289 33.0129L8.30711 34.4271C9.50156 33.2327 11.1054 32.3354 13.2173 31.2493L12.3027 29.4707ZM6.89289 33.0129C5.85536 34.0504 5.22 35.3116 5.22 36.66H7.22C7.22 35.9684 7.54464 35.1896 8.30711 34.4271L6.89289 33.0129ZM5.22 36.66C5.22 37.9452 5.79255 39.0868 6.77289 40.0671L8.18711 38.6529C7.48745 37.9532 7.22 37.2948 7.22 36.66H5.22ZM6.77289 40.0671C7.75324 41.0475 8.89477 41.62 10.18 41.62V39.62C9.54523 39.62 8.88676 39.3525 8.18711 38.6529L6.77289 40.0671Z" fill="black"/>
</svg>
